<?xml version="1.0" encoding="utf-8"?>
<!-- Generator: Adobe Illustrator 24.3.0, SVG Export Plug-In . SVG Version: 6.00 Build 0)  -->
<svg version="1.1" id="Layer_1" xmlns="http://www.w3.org/2000/svg" xmlns:xlink="http://www.w3.org/1999/xlink" x="0px" y="0px"
	 viewBox="610 160 700 560" style="enable-background:new 0 0 1920 1080;" xml:space="preserve">
<style type="text/css">
	.st0{fill:#603813;}
	.st1{fill:#2563eb;}
	.st2{fill:#FFFFFF;}
</style>

<g>
	<path class="st1" d="M772.74,400.98c-1.48-4.63-0.61-9.39-0.74-14.09c-0.15-5.79,0.15-11.59-0.04-17.38
		c-0.1-3.11,0.95-4.06,4.05-4.02c11.14,0.16,22.29-0.05,33.43,0.11c3.13,0.05,4.08-0.9,4.02-4.02c-0.19-8.91-0.19-17.83,0-26.74
		c0.07-3.19-1.06-4.06-4.09-4.01c-8.47,0.13-16.94-0.11-25.41,0.02c-2.93,0.04-4.25-0.6-4.19-3.88c0.17-8.76,0.1-17.53-0.07-26.3
		c-0.06-2.88,0.84-3.89,3.8-3.85c10.99,0.15,22-0.17,32.98,0.17c4.46,0.14,5.46-1.31,5.31-5.5c-0.31-8.61,0.06-17.24-0.12-25.85
		c-0.07-3.24,0.81-4.43,4.22-4.35c9.51,0.21,19.02,0.23,28.53-0.03c3.72-0.1,4.74,1.02,4.72,4.72
		c-0.14,34.18-0.08,68.35-0.08,102.53c0,0.89,0.08,1.79-0.02,2.67c-0.34,2.88,0.52,3.49,3.46,2.69c18.24-4.96,36.81-5.96,55.64-4.86
		c28.5,1.66,54.39,10.83,77.53,27.23c40.06,28.39,62.73,67.11,66.39,116.26c3.5,46.97-10.38,88.19-43.74,121.87
		c-35.83,36.18-79.74,51.09-130.19,46.17c-65.32-6.37-120.25-54.6-135.74-118.46c-2.39-9.85-3.72-19.88-3.75-29.98
		c-0.12-41.9,0.02-83.81-0.12-125.71c-0.01-4.09,1.12-5.29,5.19-5.17c6.36,0.18,12.76,0.58,19.1-0.33c-0.2,0.39-0.56,0.78-0.57,1.18
		c-0.07,10.08-0.08,20.16-0.17,30.25c-0.02,2.88,2.01,2.42,3.71,2.42c8.6,0,17.21-0.15,25.81-0.05c2.7,0.03,3.63-0.83,3.58-3.55
		c-0.14-8.45-0.24-16.91,0.02-25.36c0.11-3.57-1.04-4.48-4.5-4.48C791.38,401.31,782.05,401.96,772.74,400.98z M811.3,524.7
		c-0.23,51.22,42.3,93.9,93.96,94.06c51.57,0.17,93.24-40.95,94.26-91.27c1.08-53.42-40.91-96.27-93.03-96.47
		C854.17,430.82,811.53,472.79,811.3,524.7z"/>
	<path class="st2" d="M1075.29,590.64c0,28.68-0.06,57.36,0.08,86.04c0.02,3.65-0.89,4.81-4.67,4.77
		c-17.68-0.19-35.37-0.17-53.05,0.03c-3.77,0.04-4.83-1.11-4.66-4.78c0.3-6.38,0.27-12.78,0.04-19.16c-0.12-3.12,0.86-5.15,3.24-7.2
		c27.42-23.59,45.65-53.13,52.23-88.54c9.33-50.16,3.03-97.72-29.54-139.34c-6.98-8.91-14.54-17.29-23.32-24.47
		c-1.92-1.57-2.63-3.11-2.52-5.65c1.88-43.67,34.86-83.85,78.43-95.48c10.41-2.78,20.97-4.1,31.72-4.11
		c34.33-0.04,68.65-0.05,102.98-0.06c5.85,0,5.85,0.03,5.64,5.84c-0.87,24.27-17.22,47.79-38.75,55.81
		c-4.79,1.78-9.7,2.68-14.82,2.67c-17.39-0.03-34.77,0.2-52.16-0.06c-29.92-0.45-52.29,22.75-50.95,50.52
		c0.37,7.71,0.22,15.46-0.05,23.18c-0.12,3.47,1.1,4.17,4.33,4.16c40.86-0.1,81.73-0.06,122.59-0.07c5.98,0,6.07-0.03,5.48,5.84
		c-2.32,23.15-12.23,41.68-33.06,53.32c-6.72,3.75-14.03,5.47-21.8,5.45c-24.37-0.08-48.74,0.03-73.11-0.12
		c-3.56-0.02-4.42,1.07-4.4,4.5c0.13,28.98,0.07,57.95,0.07,86.93C1075.28,590.64,1075.29,590.64,1075.29,590.64z"/>
	<path class="st1" d="M1239.25,754.08c1.03-7.48,1.03-7.48,8.34-7.53c7.69-0.05,7.71-0.05,7.71,7.78
		c0.01,21.69-0.14,43.39,0.04,65.08c0.23,27.46-17.37,44.15-46.94,42.46c-7.93-0.45-15.52-2.49-22.74-5.87
		c-2.4-1.12-3.63-2.15-1.74-4.91c2.09-3.05,2.99-7.58,5.76-9.29c2.81-1.75,6.34,1.98,9.68,2.95c7.58,2.21,15.14,3.02,22.82,0.81
		c11.9-3.42,18.26-13.29,17.19-27.48c-9.57,8.56-20.57,11.23-32.7,9.64c-12.38-1.62-22.04-7.62-28.78-18.15
		c-10.78-16.86-7.85-39.82,6.19-53.64C1195.98,744.21,1222.06,739.6,1239.25,754.08z M1187.12,786.87
		c0.09,14.64,11.8,26.49,26.2,26.52c14.67,0.03,26.86-12.31,26.75-27.06c-0.11-14.71-12.1-26.61-26.74-26.53
		C1198.96,759.87,1187.03,772.18,1187.12,786.87z"/>
	<path class="st1" d="M590.37,754.53c18.31-14.95,43.92-10.08,55.46,0.73c13.38,12.53,17.32,32.24,9.44,49.94
		c-6.86,15.41-24.11,24.69-42.64,22.93c-24.55-2.32-38.49-17.81-38.43-42.6c0.05-22.27,0.17-44.54-0.03-66.8
		c-0.04-4.06,1.19-4.92,4.97-4.85c11.17,0.21,11.2,0.06,11.23,11.44C590.4,734.77,590.37,744.23,590.37,754.53z M616.61,813.44
		c15.07,0.04,26.67-11.71,26.65-27c-0.01-14.78-11.87-26.64-26.64-26.64c-14.56,0-26.46,12.11-26.43,26.88
		C590.22,801.69,601.77,813.4,616.61,813.44z"/>
	<path class="st1" d="M871.82,793.65c-9.21,0-18.42,0.18-27.62-0.08c-4.06-0.11-3.96,1.41-2.88,4.42
		c4.83,13.51,23.44,19.83,36.75,12.37c1.42-0.79,2.67-1.89,4.08-2.69c2.14-1.21,3.66-5.27,5.63-4.18c3.8,2.1,6.88,5.58,10.02,8.72
		c1.17,1.17-0.55,2.11-1.28,2.85c-12.44,12.72-27.66,15.91-44.25,11.4c-16.01-4.35-25.22-15.74-28.01-31.92
		c-2.77-16.09,1.44-30.31,14.34-40.75c12.49-10.1,26.92-11.58,41.53-5.38c16.04,6.81,22.49,20.39,23.11,37.04
		c0.38,10.23,0.53,8.03-7.81,8.16c-7.87,0.12-15.74,0.03-23.61,0.03C871.82,793.63,871.82,793.64,871.82,793.65z M863.59,779.65
		c0-0.01,0-0.02,0-0.04c6.68,0,13.35-0.14,20.02,0.06c3.1,0.09,3.42-0.89,2.62-3.6c-2.83-9.58-12.11-16.38-22.5-16.25
		c-10.72,0.13-20.34,7.46-22.93,17.15c-0.7,2.62,0.43,2.7,2.32,2.69C849.94,779.63,856.76,779.65,863.59,779.65z"/>
	<path class="st1" d="M1313.05,793.66c-9.21,0-18.42,0.15-27.62-0.07c-3.71-0.09-3.76,1.16-2.67,4.09
		c5.88,15.8,26.61,21.06,40.55,10.21c6.05-4.72,6.05-4.72,11.99,0.45c5.31,4.62,5.31,4.62-0.06,9.38
		c-17.19,15.24-45.44,13.93-59.92-2.77c-15.37-17.72-13.51-46.26,4.38-60.82c12.31-10.01,26.43-11.83,41.06-6.07
		c13.94,5.49,21.31,16.55,23.33,31.16c2,14.47,1.87,14.48-12.77,14.4c-6.09-0.03-12.18-0.01-18.26-0.01
		C1313.05,793.63,1313.05,793.65,1313.05,793.66z M1304.75,779.63c0-0.01,0-0.02,0-0.02c6.67,0,13.36-0.18,20.02,0.07
		c3.76,0.14,3.72-1.43,2.82-4.19c-3.06-9.3-12.39-15.83-22.55-15.66c-10.56,0.17-19.88,7.22-22.72,16.86
		c-0.8,2.72,0.21,2.98,2.41,2.96C1291.4,779.59,1298.08,779.63,1304.75,779.63z"/>
	<path class="st1" d="M707.67,804.68c4.04-9.71,8.07-19.38,12.08-29.06c3.59-8.64,7.22-17.26,10.7-25.93
		c0.89-2.21,2.06-3.28,4.58-3.17c4.43,0.19,8.88,0.05,14.01,0.05c-2.83,6.84-5.38,13.27-8.12,19.62
		c-10.09,23.3-20.17,46.59-30.4,69.83c-4.59,10.42-10.85,19.23-23.2,21.29c-5.69,0.95-11.24,0.33-16.69-1.48
		c-2.04-0.68-3.09-1.66-1.94-3.88c0.34-0.65,0.47-1.41,0.71-2.11c0.92-2.67,1.18-5.96,2.95-7.83c2.09-2.2,5.11,0.54,7.79,0.66
		c4.99,0.23,9.06-1.26,12.05-5.34c0.7-0.96,1.29-1.99,1.95-2.98c3.55-5.37,4.42-10.41,1.43-16.88
		c-10.22-22.12-19.61-44.62-29.52-66.88c-1.61-3.62-0.79-4.33,2.75-4.04c4.27,0.35,9.26-1.57,12.65,0.65
		c3.24,2.11,3.57,7.27,5.24,11.06c6.33,14.42,12.53,28.9,18.83,43.33C705.96,802.59,705.97,803.95,707.67,804.68z"/>
	<path class="st1" d="M1060.97,828.87c3.62-4.6,6.78-8.52,9.81-12.53c1.01-1.33,2.44-1.61,3.82-2.07c3.61-1.21,6.71-3.12,9.07-6.16
		c10.98-14.09,4.71-38.99-11.62-46.07c-11.14-4.84-24.29-2.01-32.2,6.91c-7.81,8.82-9.3,22.7-3.41,32.89
		c3.33,5.77,8.11,9.96,14.68,11.46c4.22,0.97,3.79,2.41,1.33,4.93c-1.34,1.37-2.69,2.87-3.54,4.56c-2.34,4.65-5.45,4.16-9.48,2.26
		c-17.37-8.17-26.13-29.26-20.41-49.66c5.51-19.66,22.83-31.54,44.3-30.41c21.19,1.12,36.27,14.22,39.91,34.57
		c1.32,7.4,1.25,14.78-0.09,22.13c-2.63,14.41-13.31,24.65-27.84,26.86C1070.79,829.24,1066.26,829.48,1060.97,828.87z"/>
	<path class="st1" d="M986.28,793.74c0,9.8-0.08,19.61,0.05,29.41c0.03,2.67-0.77,3.56-3.52,3.66
		c-12.42,0.44-12.41,0.53-12.41-11.65c0.01-16.64-0.09-33.28,0.08-49.92c0.03-3.32-0.86-4.33-4.21-4.27
		c-8.21,0.15-8.26-0.02-8.19-8.14c0.06-6.95-1.05-6.48,6.53-6.21c4.46,0.16,5.98-0.85,5.89-5.69
		c-0.45-25.19,20.63-32.67,39.25-26.24c2.25,0.78,3.27,1.87,2.13,4.25c-0.38,0.8-0.56,1.69-0.86,2.53
		c-0.93,2.65-1.18,6.08-3.02,7.73c-1.91,1.71-4.73-1.11-7.3-1.47c-10.27-1.43-15.72,5.88-14.3,17.17c0.26,2.04,1.88,1.55,3.1,1.57
		c5.2,0.07,10.4,0.14,15.6,0.03c2.25-0.05,3.04,0.67,3.21,2.99c0.88,11.47,0.95,11.47-10.26,11.65c-0.3,0-0.6-0.02-0.89,0.02
		c-3.5,0.4-8.24-1.75-10.18,0.81c-1.75,2.31-0.66,6.83-0.69,10.37c-0.05,7.13-0.02,14.26-0.02,21.39
		C986.3,793.74,986.29,793.74,986.28,793.74z"/>
	<path class="st1" d="M775.26,783.13c0-6.24-0.1-12.48,0.05-18.72c0.06-2.55-0.87-3.56-3.34-3.33c-0.44,0.04-0.89,0.03-1.34-0.01
		c-3.2-0.32-8.1,1.56-9.24-0.76c-1.6-3.23-0.51-7.8-0.58-11.8c-0.02-1.31,0.65-1.87,1.9-1.89c0.59-0.01,1.19,0,1.78-0.07
		c3.48-0.41,8.24,1.66,10.14-0.94c1.72-2.35,0.55-6.85,0.6-10.4c0.05-3.12,0.25-6.26,0-9.36c-0.26-3.21,0.63-4.4,4.1-4.42
		c11.86-0.07,11.86-0.21,11.81,11.76c-0.01,3.27,0.14,6.55-0.05,9.8c-0.15,2.65,0.63,3.73,3.47,3.6c4.75-0.22,9.51,0.04,14.26-0.13
		c2.6-0.09,3.62,0.6,3.69,3.44c0.28,11.13,0.39,11.13-10.57,11.19c-10.74,0.07-10.76,0.07-10.81,10.87
		c-0.04,8.92-0.07,17.83-0.03,26.75c0.04,10.79,6.45,16.09,16.77,13.36c3.96-1.05,5,0.24,5.23,3.65c0.05,0.74,0.25,1.46,0.37,2.2
		c1.45,8.35,1.45,8.35-6.93,9.57c-17.86,2.62-30.97-8.47-31.29-26.54c-0.11-5.94-0.02-11.89-0.02-17.83
		C775.24,783.13,775.25,783.13,775.26,783.13z"/>
	<path class="st1" d="M1135.58,755.98c6.91-8.16,14.99-11.61,24.92-10.57c2.88,0.3,4.3,1.16,3.78,4.43
		c-0.46,2.91-0.4,5.92-0.36,8.89c0.03,2.35-0.63,2.98-3.12,2.57c-14.56-2.43-25.3,6.64-25.49,21.58
		c-0.16,13.07-0.17,26.14,0.03,39.2c0.05,3.57-0.72,4.87-4.58,4.81c-11.33-0.15-11.36,0.02-11.37-11.39
		c-0.01-21.53,0.11-43.07-0.07-64.6c-0.03-3.65,1.12-4.84,4.52-4.39c0.73,0.1,1.48,0.01,2.23,0.02
		C1134.82,746.56,1134.82,746.56,1135.58,755.98z"/>
	<path class="st2" d="M771.3,344.48c0,4.45-0.12,8.91,0.05,13.36c0.1,2.6-0.58,3.74-3.43,3.7c-9.05-0.16-18.11-0.15-27.16-0.07
		c-2.35,0.02-3.47-0.51-3.44-3.17c0.13-9.35,0.14-18.7,0.01-28.05c-0.04-2.67,1.04-3.2,3.41-3.18c9.05,0.08,18.11,0.1,27.16-0.06
		c2.83-0.05,3.55,1.07,3.46,3.67c-0.16,4.6-0.04,9.2-0.04,13.8C771.32,344.48,771.31,344.48,771.3,344.48z"/>
	<path class="st2" d="M716.85,214.53c-0.44,3.28,1.96,8.92-0.98,11.71c-2.69,2.54-8.21,0.69-12.48,0.77
		c-4.11,0.08-9.43,1.83-12.05-0.69c-2.81-2.71-0.84-8.12-1.02-12.35c-0.16-3.7,0.11-7.41,0-11.12c-0.06-2.23,0.6-3.19,3-3.15
		c6.82,0.12,13.64,0.11,20.46,0.01c2.28-0.03,3.19,0.73,3.1,3.07C716.75,206.33,716.85,209.89,716.85,214.53z"/>
	<path class="st2" d="M763.39,251.76c0,3.41-0.1,6.82,0.04,10.22c0.09,2.17-0.43,3.25-2.9,3.2c-6.81-0.13-13.63-0.14-20.44-0.02
		c-2.6,0.04-3.26-1.04-3.22-3.45c0.12-6.66,0.13-13.33-0.02-19.99c-0.06-2.62,0.65-3.71,3.47-3.64c6.51,0.16,13.04,0.14,19.55-0.02
		c2.64-0.06,3.76,0.69,3.6,3.48c-0.2,3.39-0.05,6.81-0.05,10.22C763.4,251.76,763.4,251.76,763.39,251.76z"/>
	<path class="st2" d="M727.13,300.04c-0.01,3.41-0.08,6.82,0.02,10.22c0.06,2.27-0.83,3.16-3.13,3.13
		c-6.82-0.08-13.63-0.05-20.45,0.05c-2.1,0.03-2.88-0.72-2.86-2.82c0.07-7.11,0.08-14.23-0.02-21.34c-0.04-2.47,1.18-2.96,3.29-2.94
		c6.67,0.06,13.34,0.1,20.01-0.03c2.64-0.05,3.28,1.14,3.19,3.5C727.04,293.22,727.14,296.63,727.13,300.04z"/>
	<path class="st2" d="M788.09,228.58c0.5-3.49-1.91-8.91,0.96-11.66c2.63-2.53,7.94-0.75,12.06-0.73c4.23,0.02,9.87-1.96,12.31,1
		c2.08,2.54,0.82,7.95,0.75,12.08c-0.08,4.4,1.9,10.06-0.97,12.83c-2.65,2.56-8.23,0.86-12.51,0.7c-4.08-0.15-9.52,1.94-11.87-0.95
		c-2-2.45-0.61-7.65-0.72-11.64C788.09,229.91,788.09,229.61,788.09,228.58z"/>
	<path class="st2" d="M930.91,881.59c0,5.97-0.03,10.64,0.01,15.31c0.02,1.92-0.02,3.48-2.71,3.47c-2.84,0-2.52-1.8-2.52-3.58
		c0-6.67-0.07-13.34,0.05-20.01c0.02-1.37-1.07-3.52,1.46-3.95c1.93-0.33,3.65-0.18,5.03,1.8c3.64,5.21,7.52,10.24,12.25,15.31
		c0-4.58,0.01-9.16-0.01-13.74c-0.01-1.81-0.24-3.49,2.58-3.49c2.72,0,2.7,1.49,2.69,3.41c-0.03,6.82,0.04,13.63-0.02,20.45
		c-0.01,1.35,0.72,3.28-1.33,3.74c-1.87,0.42-3.65,0.33-5.05-1.69C939.58,893.22,935.59,887.98,930.91,881.59z"/>
	<path class="st2" d="M1085.69,900.67c-7.96-0.06-13.87-6.21-13.74-14.32c0.13-8.09,6.21-14.12,14.12-14.02
		c8.06,0.1,14.02,6.14,13.98,14.14C1100,894.83,1094.03,900.73,1085.69,900.67z M1086,877.23c-5.05-0.01-8.66,3.8-8.73,9.19
		c-0.07,5.4,3.94,9.73,8.9,9.6c4.83-0.12,8.46-4.26,8.41-9.59C1094.54,880.86,1091.16,877.23,1086,877.23z"/>
	<path class="st2" d="M990.17,900.68c-8.02-0.1-13.8-6.2-13.64-14.39c0.16-8.15,6.17-14.06,14.19-13.94
		c7.9,0.12,13.86,6.41,13.68,14.47C1004.22,894.99,998.27,900.78,990.17,900.68z M990.66,877.23c-5.1-0.1-8.7,3.65-8.79,9.14
		c-0.09,5.34,3.63,9.61,8.42,9.65c4.9,0.05,8.73-4.02,8.78-9.31C999.13,881.12,995.76,877.33,990.66,877.23z"/>
	<path class="st2" d="M1145.26,885.41c1.49,0.92,4.64-1.96,5.51,1.84c1.26,5.49,0.07,9.73-3.21,11.35
		c-5.88,2.9-11.77,3.19-17.17-0.97c-4.88-3.75-6.01-9.02-4.74-14.79c2.16-9.79,14.61-14,22.23-7.54c0.9,0.76,3.14,1.5,1.49,3.38
		c-1.22,1.39-2.55,2.07-4.51,0.44c-3.17-2.63-6.91-2.74-10.32-0.45c-3.42,2.29-4.39,5.82-3.75,9.79c0.64,3.95,3.12,6.24,6.86,7.32
		c2.29,0.66,4.38,0.03,6.43-0.95c1.46-0.7,1.73-1.97,1.55-3.36c-0.22-1.7-1.66-1.22-2.75-1.49c-1.67-0.41-4.67,1.43-4.5-2.33
		c0.15-3.58,3.03-1.75,4.74-2.2C1143.66,885.28,1144.29,885.41,1145.26,885.41z"/>
	<path class="st2" d="M897.09,886.64c0,3.71-0.03,7.41,0.01,11.12c0.02,1.75-0.41,2.77-2.48,2.75c-2.09-0.02-2.73-0.77-2.84-2.88
		c-0.47-9.19-0.54-9.05-9.52-9.01c-3.11,0.01-4.29,0.95-3.94,4.04c0.19,1.75-0.05,3.55,0,5.33c0.05,2.01-1.02,2.49-2.81,2.44
		c-1.66-0.04-2.44-0.67-2.44-2.37c0.02-7.71,0.04-15.41-0.01-23.12c-0.01-1.83,0.94-2.26,2.5-2.21c1.4,0.05,2.77,0.04,2.73,2
		c-0.01,0.3-0.01,0.6,0.02,0.89c0.27,2.6-1.31,6.35,0.78,7.55c3.1,1.79,7.21,0.49,10.88,0.57c1.63,0.04,1.83-1.14,1.83-2.43
		c0-2.07,0.14-4.16,0.03-6.22c-0.12-2.2,1.2-2.31,2.83-2.34c1.65-0.03,2.45,0.54,2.42,2.3c-0.07,3.85-0.02,7.71-0.02,11.56
		C897.08,886.64,897.09,886.64,897.09,886.64z"/>
	<path class="st2" d="M775.31,885.48c0.51-3.53-1.95-9.21,0.97-11.96c2.66-2.49,8.24-0.87,12.5-0.66c1.97,0.09,5.8-2.13,5.75,2.18
		c-0.05,4.2-3.81,1.74-5.87,2.22c-1.55,0.36-3.25,0.2-4.87,0.05c-2.55-0.24-3.28,0.83-3.28,3.31c0,2.55,0.92,3.44,3.37,3.32
		c2.36-0.11,4.74,0.07,7.11,0.05c1.68-0.02,2.8,0.26,2.78,2.4c-0.02,2.23-1.36,2.29-2.92,2.31c-2.07,0.02-4.16,0.16-6.22,0.04
		c-2.56-0.15-4.08,0.2-4.15,3.46c-0.06,3.26,1.4,3.71,4,3.59c2.51-0.11,5.04,0.03,7.55-0.01c1.72-0.03,2.77,0.35,2.71,2.45
		c-0.06,1.87-0.98,2.21-2.52,2.19c-4.74-0.04-9.48-0.09-14.22,0c-2.22,0.04-2.77-0.99-2.72-2.98
		C775.38,893.73,775.31,890.03,775.31,885.48z"/>
	<path class="st2" d="M835.34,900.65c-6.48,0.04-11.9-3.66-13.69-9.34c-1.93-6.14,0.12-12.73,5.05-16.26
		c4.95-3.54,11.81-3.71,16.19-0.25c1.28,1.01,3.58,2.11,2.43,4.04c-1.26,2.11-3.12,1.61-5.16,0.06c-3.76-2.87-8.76-2.13-11.58,1.25
		c-3.03,3.63-2.88,9.59,0.32,13.09c3.12,3.42,7.51,3.86,11.51,0.58c2.05-1.68,3.56-1.4,4.86,0.24c1.51,1.92-0.73,2.81-1.75,3.71
		C841.24,899.81,838.46,900.82,835.34,900.65z"/>
	<path class="st2" d="M1173.81,873c8.59-1.59,7.66,7.47,12.32,10.1c4.44-2.61,3.64-11.89,12.75-10.09
		c-1.91,2.99-3.47,5.79-5.36,8.34c-3.57,4.8-5.78,9.91-4.84,16.05c0.3,1.93-0.38,3.14-2.64,3.04c-1.52-0.07-2.88-0.39-2.52-2.2
		c1.76-8.95-4.03-15.02-8.15-21.73c-0.47-0.76-0.95-1.5-1.38-2.28C1173.87,873.99,1173.9,873.67,1173.81,873z"/>
	<path class="st2" d="M734.81,888.74c0-1.63-0.13-3.27,0.03-4.89c0.44-4.37-0.09-7.69-5.85-6.54c-1.67,0.34-2.34-0.62-2.36-2.32
		c-0.02-1.86,1-2.21,2.51-2.21c5.48,0.01,10.96-0.02,16.44-0.01c1.31,0,2.69-0.17,2.69,1.94c0,1.88-0.63,2.95-2.54,2.6
		c-5.29-0.98-6.1,1.71-5.74,6.19c0.36,4.56,0.06,9.18,0.08,13.77c0.01,1.77-0.08,3.16-2.5,3.24c-2.63,0.09-2.84-1.33-2.79-3.33
		C734.86,894.37,734.81,891.56,734.81,888.74z"/>
	<path class="st2" d="M1030.99,886.52c0-2.96-0.17-5.94,0.06-8.88c0.15-1.82-1.55-4.76,2.43-4.89c3.96-0.12,2.65,2.77,2.7,4.67
		c0.14,4.89,0.23,9.79-0.02,14.66c-0.16,3.07,1.1,3.92,3.86,3.73c2.07-0.14,4.15-0.01,6.22-0.08c1.62-0.05,2.49,0.49,2.46,2.28
		c-0.03,1.69-0.73,2.38-2.42,2.37c-4.3-0.04-8.59-0.02-12.89,0.06c-2.05,0.04-2.46-1.08-2.44-2.81c0.05-3.7,0.01-7.41,0.01-11.11
		C1030.97,886.52,1030.98,886.52,1030.99,886.52z"/>
	<path class="st2" d="M758.9,187.01c0.01-7.09,0.01-7.09,6.96-7.05c7.38,0.04,7.38,0.04,7.4,7.6c0.02,6.99,0.02,6.99-7.07,7.05
		C758.89,194.66,758.89,194.66,758.9,187.01z"/>
	<path class="st2" d="M920.63,482.38c6.32,0,6.41,0.04,4.42,5.41c-9.55,25.7-19.14,51.37-28.73,77.05c-0.9,2.42-9.5,4.25-11.22,2.35
		c-1.13-1.26,0.07-2.57,0.48-3.7c5.4-14.6,10.9-29.17,16.38-43.74c4.01-10.68,8.19-21.31,11.96-32.07
		C915.27,483.82,916.7,481.12,920.63,482.38z"/>
	<path class="st2" d="M849.63,524.79c8.81,5.21,17.1,10.09,25.35,15.04c1.16,0.69,3.17,1.11,2.5,3.1c-0.89,2.65-1.35,5.55-3.23,7.72
		c-0.6,0.69-1.62-0.34-2.34-0.77c-10.97-6.48-21.95-12.95-32.88-19.51c-3.74-2.24-3.69-8.75,0.05-10.98
		c10.81-6.47,21.69-12.83,32.46-19.36c2.25-1.36,3.19-1.1,4.18,1.39c2.58,6.47,2.67,6.4-3.54,10.04
		C864.8,515.78,857.46,520.16,849.63,524.79z"/>
	<path class="st2" d="M961.52,524.64c-8.84-5.23-16.88-9.96-24.89-14.75c-1.2-0.72-3.33-1.16-2.87-2.92
		c0.69-2.68,1.48-5.48,3.29-7.67c0.64-0.77,1.62,0.17,2.36,0.6c11.1,6.59,22.22,13.13,33.27,19.81c3.01,1.82,2.95,8.32-0.07,10.16
		c-11.02,6.71-22.14,13.26-33.17,19.95c-1.97,1.19-2.94,0.71-3.53-1.31c-0.12-0.43-0.23-0.89-0.47-1.24
		c-2.81-4.18-1.52-6.48,2.86-8.79C946.02,534.41,953.33,529.57,961.52,524.64z"/>
</g>
</svg>